<svg xmlns="http://www.w3.org/2000/svg" xmlns:xlink="http://www.w3.org/1999/xlink" fill="none" version="1.1" width="20" height="20" viewBox="0 0 20 20"><g><path d="M9.99993,0C4.47715,0,0,4.47721,0,10.0001C0,15.5229,4.47715,20,9.99993,20C15.5228,20,20,15.5229,20,10.0001C20,4.47721,15.5228,0,9.99993,0ZM9.86559,17.1887C9.35258,17.4754,8.93295,17.6187,8.60751,17.6187C8.32221,17.6187,8.09623,17.531,7.92936,17.356C7.76244,17.1808,7.67906,16.9379,7.67906,16.6274C7.67906,15.6323,8.28979,13.1998,9.51137,9.33034C9.56847,9.14717,9.59699,8.9839,9.59699,8.84071C9.59699,8.6816,9.52365,8.60187,9.37706,8.60187C9.21406,8.60187,9.029,8.66571,8.82142,8.79292C8.61363,8.92039,8.15121,9.32648,7.43484,10.0112L6.89728,9.60507C7.71064,8.72934,8.45292,8.10612,9.12384,7.73598C9.79509,7.36582,10.3662,7.18064,10.8381,7.18064C11.0985,7.18064,11.2978,7.23642,11.436,7.34774C11.5741,7.45936,11.6435,7.61048,11.6435,7.80162C11.6435,8.03263,11.3795,9.01196,10.8515,10.7397C9.99071,13.566,9.5603,15.2701,9.5603,15.8512C9.5603,15.9628,9.58863,16.0563,9.6458,16.1318C9.70274,16.2076,9.76375,16.2451,9.82907,16.2451C10.0896,16.2451,10.7574,15.7517,11.8324,14.7643L12.3088,15.2181C11.1928,16.2451,10.3787,16.9021,9.86559,17.1887ZM12.7073,5.08961C12.4589,5.35651,12.18,5.48961,11.8705,5.48961C11.6263,5.48961,11.4226,5.406,11.2597,5.23879C11.0969,5.07176,11.0155,4.85281,11.0155,4.58194C11.0155,4.22377,11.1334,3.91913,11.3697,3.66829C11.6058,3.4176,11.8868,3.29224,12.2127,3.29224C12.465,3.29224,12.6727,3.37393,12.8356,3.53694C12.9985,3.70032,13.0798,3.90927,13.0798,4.16393C13.0799,4.51434,12.9557,4.82276,12.7073,5.08961Z" fill="#0096FF" fill-opacity="1"/></g></svg>