<svg xmlns="http://www.w3.org/2000/svg" xmlns:xlink="http://www.w3.org/1999/xlink" fill="none" version="1.1" width="28" height="28" viewBox="0 0 28 28"><defs><clipPath id="master_svg0_96_5594"><rect x="0" y="0" width="28" height="28" rx="0"/></clipPath></defs><g clip-path="url(#master_svg0_96_5594)"><g><path d="M26.6,2.45L18.55,1.75L18.55,24.15L26.6,24.85C27.3732,24.85,28,24.2232,28,23.45L28,3.85C28,3.0768,27.3732,2.45,26.6,2.45ZM0,3.85L0,23.45C0,24.2235,0.5831,24.4706,1.4,24.85L9.45,26.25L9.45,3.85Q3.5007,2.8049,1.4,2.45C0.6377,2.3212,0,3.0772,0,3.85Z" fill="#E9E6DE" fill-opacity="1"/></g><g><path d="M9.44970703125,26.25L18.54970703125,24.15L18.54970703125,1.75L9.449707865715,3.85L9.44970703125,26.25Z" fill="#D6CEBF" fill-opacity="1"/></g><g><path d="M1.23779296875,4.716334375L1.23779296875,22.583834375C1.23779296875,23.288734375,1.8439929687499999,23.668134375,2.51389296875,23.859934375L9.45019296875,25.259934375L9.45019296875,4.840234375Q4.0622929687500005,4.012834375,2.15829296875,3.6894343750000003C1.46389296875,3.571834375,1.237792864442,4.010734375,1.23779296875,4.716334375ZM25.48649296875,3.440234375L18.55019296875,2.740234375L18.55019296875,23.159934375L25.48649296875,23.859934375C26.19129296875,23.859934375,26.76259296875,23.288634375,26.76259296875,22.583834375L26.76259296875,4.716334375C26.76299296875,4.011404375,26.19139296875,3.4398473750000003,25.48649296875,3.440234375Z" fill="#1288BC" fill-opacity="1"/></g><g><path d="M9.44970703125,25.259934375L18.54970703125,23.159934375L18.54970703125,2.740234375L9.449707865715,4.840234375L9.44970703125,25.259934375Z" fill="#46B8EC" fill-opacity="1"/></g><g><path d="M2.722412109375,24.12832890625L3.7101121093750002,25.12092890625L9.450112109374999,19.40752890625L9.450112109374999,17.43212890625L2.722412109375,24.12832890625Z" fill="#E9E6DE" fill-opacity="1"/></g><g><path d="M18.54970703125,8.3740234375L9.44970703125,17.4320234375L9.44970703125,19.4074234375L18.54970703125,10.3494234375L18.54970703125,8.3740234375Z" fill="#D6CEBF" fill-opacity="1"/></g><g><path d="M24.5019328125,2.44970703125L18.5498328125,8.37380703125L18.5498328125,10.34920703125L25.4896328125,3.4416070312500002L24.5019328125,2.44970703125ZM7.6515328125,3.6775070312500002L6.8486328125,4.35370703125L9.4498328125,7.44420703125L9.4498328125,5.81390703125L7.6515328125,3.6775070312500002Z" fill="#E9E6DE" fill-opacity="1"/></g><g><path d="M14.92650703125,12.320953124999999L9.44970703125,5.814453125L9.44970703125,7.444753125L14.12290703125,12.996453125L14.92650703125,12.320953124999999Z" fill="#D6CEBF" fill-opacity="1"/></g><g><path d="M8.12478203125,19.747802734375L7.37158203125,20.479302734375L9.44988203125,22.620602734374998L9.44988203125,21.112802734375L8.12478203125,19.747802734375Z" fill="#E9E6DE" fill-opacity="1"/></g><g><path d="M13.06240703125,24.83469296875L9.44970703125,21.11279296875L9.44970703125,22.62059296875L12.30850703125,25.566192968750002L13.06240703125,24.83469296875Z" fill="#D6CEBF" fill-opacity="1"/></g><g><path d="M14.5084984375,6.454102396965C11.9400884375,6.4548751115,9.8583984375,8.5365715625,9.8583984375,11.1042015625C9.8583984375,12.745701562499999,10.6864984375,13.6501015625,11.9933984375,15.0165015625C12.7318984375,15.7886015625,14.5077984375,18.070601562500002,14.5077984375,20.146801562500002C14.5077984375,18.0713015625,16.2836984375,15.7886015625,17.022198437500002,15.0165015625C18.3297984375,13.6508015625,19.1571984375,12.745701562499999,19.1571984375,11.1042015625C19.1579784375,8.5362515625,17.0764584375,6.454100728035,14.5084984375,6.454102396965Z" fill="#C34B3E" fill-opacity="1"/></g><g><path d="M17.76065109375,11.10308765625Q17.76065109375,11.26289765625,17.744991093750002,11.42193765625Q17.729321093750002,11.580977656249999,17.69814109375,11.73771765625Q17.66696109375,11.894457656250001,17.62057109375,12.047387656249999Q17.57418109375,12.20031765625,17.513021093749998,12.34795765625Q17.45187109375,12.49560765625,17.37653109375,12.636537656249999Q17.30120109375,12.77747765625,17.21241109375,12.91035765625Q17.12362109375,13.04323765625,17.02224109375,13.16676765625Q16.92085109375,13.29030765625,16.80785109375,13.40330765625Q16.69484109375,13.51630765625,16.57130109375,13.61768765625Q16.44777109375,13.719067656250001,16.31489109375,13.80785765625Q16.18201109375,13.89663765625,16.04106109375,13.97197765625Q15.90012109375,14.04730765625,15.75247109375,14.10846765625Q15.604821093750001,14.16961765625,15.45189109375,14.21601765625Q15.29896109375,14.26240765625,15.142221093749999,14.293577656250001Q14.98547109375,14.32475765625,14.82643109375,14.34041765625Q14.66739109375,14.35608765625,14.50757109375,14.35608765625Q14.34776109375,14.35608765625,14.18872109375,14.34041765625Q14.02967109375,14.32475765625,13.872931093750001,14.293577656250001Q13.71619109375,14.26239765625,13.56325109375,14.21600765625Q13.41032109375,14.16961765625,13.26267109375,14.10846765625Q13.11503109375,14.04730765625,12.97408109375,13.97197765625Q12.83314109375,13.89663765625,12.700261093750001,13.80785765625Q12.56738109375,13.719067656250001,12.44384109375,13.61768765625Q12.32031109375,13.51630765625,12.20730209375,13.40330765625Q12.09429609375,13.29030765625,11.99291209375,13.16676765625Q11.89152709375,13.04323765625,11.80274009375,12.91035765625Q11.71395209375,12.77747765625,11.63861709375,12.636537656249999Q11.56328109375,12.49560765625,11.50212309375,12.34795765625Q11.44096509375,12.20031765625,11.39457409375,12.047387656249999Q11.34818239375,11.894457656250001,11.31700439375,11.73771765625Q11.28582629375,11.580977656249999,11.27016189375,11.42193765625Q11.25449740875,11.26289765625,11.25449740875,11.10308765625Q11.25449740875,10.94327765625,11.27016189375,10.78423765625Q11.28582629375,10.62520765625,11.31700439375,10.46846765625Q11.34818239375,10.31172765625,11.39457409375,10.15879765625Q11.44096509375,10.00586765625,11.50212309375,9.85822765625Q11.56328109375,9.710577656249999,11.63861609375,9.56963765625Q11.71395209375,9.42869765625,11.80274009375,9.29582765625Q11.89152709375,9.162947656250001,11.99291209375,9.03941765625Q12.09429609375,8.91587765625,12.20730109375,8.80287765625Q12.32031109375,8.68987565625,12.44384109375,8.58849365625Q12.56738109375,8.48711165625,12.700261093750001,8.39832565625Q12.83314109375,8.30954065625,12.97408109375,8.23420665625Q13.11503109375,8.15887365625,13.26267109375,8.09771665625Q13.41032109375,8.03656065625,13.56325109375,7.99017065625Q13.71619109375,7.94378025625,13.872931093750001,7.91260305625Q14.02967109375,7.88142575625,14.18872109375,7.86576175625Q14.34776109375,7.85009765625,14.50757109375,7.85009765625Q14.66739109375,7.85009765625,14.82643109375,7.86576175625Q14.98547109375,7.88142575625,15.142221093749999,7.91260305625Q15.29896109375,7.94378025625,15.45189109375,7.99017065625Q15.604821093750001,8.03656065625,15.75247109375,8.09771665625Q15.90012109375,8.15887365625,16.04106109375,8.23420665625Q16.18201109375,8.30954065625,16.31489109375,8.39832565625Q16.44777109375,8.48711165625,16.57130109375,8.58849365625Q16.69484109375,8.68987565625,16.80785109375,8.80287765625Q16.92085109375,8.91587765625,17.02224109375,9.03941765625Q17.12362109375,9.162947656250001,17.21241109375,9.29582765625Q17.30120109375,9.42869765625,17.37653109375,9.56963765625Q17.45187109375,9.710577656249999,17.513021093749998,9.85822765625Q17.57418109375,10.00586765625,17.62057109375,10.15879765625Q17.66696109375,10.31172765625,17.69814109375,10.46846765625Q17.729321093750002,10.62520765625,17.744991093750002,10.784247656249999Q17.76065109375,10.94327765625,17.76065109375,11.10308765625Z" fill="#843528" fill-opacity="1"/></g></g></svg>