<svg xmlns="http://www.w3.org/2000/svg" xmlns:xlink="http://www.w3.org/1999/xlink" fill="none" version="1.1" width="18.145751953125" height="22" viewBox="0 0 18.145751953125 22"><g><g><path d="M2.0091099999999997,21L16.136699999999998,21C16.694000000000003,21,17.1458,20.5523,17.1458,20L17.1458,6L12.1002,6L12.1002,1L2.0091099999999997,1C1.451793,1,1,1.447715,1,2L1,20C1,20.5523,1.451793,21,2.0091099999999997,21Z" fill="#4DAEF2" fill-opacity="1"/><path d="M0,2L0,20Q0,20.8311,0.591672,21.4174Q1.179563,22,2.0091099999999997,22L16.136699999999998,22Q16.9662,22,17.5541,21.4174Q18.1458,20.8311,18.1458,20L18.1458,6Q18.1458,5.90151,18.1265,5.80491Q18.1073,5.70831,18.0696,5.61732Q18.0319,5.52632,17.9772,5.44443Q17.9225,5.36254,17.8529,5.29289Q17.7832,5.22325,17.7013,5.16853Q17.6194,5.11381,17.5284,5.07612Q17.4374,5.03843,17.3408,5.01921Q17.2442,5,17.1458,5L13.1002,5L13.1002,1Q13.1002,0.9015086,13.081,0.80491Q13.0618,0.708311,13.0241,0.617317Q12.9864,0.526322,12.9317,0.44443Q12.877,0.362537,12.8073,0.29289299999999996Q12.7377,0.22324900000000003,12.6558,0.16852999999999996Q12.5739,0.11381200000000002,12.4829,0.076121Q12.3919,0.038429999999999964,12.2953,0.019214999999999982Q12.1987,0,12.1002,0L2.0091099999999997,0Q1.179563,0,0.5916680000000001,0.582587Q0,1.168914,0,2ZM2.0091099999999997,20L2,20L2,2L11.1002,2L11.1002,6Q11.1002,6.09849,11.1194,6.19509Q11.1386,6.29169,11.1763,6.38268Q11.214,6.47368,11.2687,6.55557Q11.3235,6.63746,11.3931,6.70711Q11.4627,6.77675,11.5446,6.83147Q11.6265,6.88619,11.7175,6.92388Q11.8085,6.96157,11.9051,6.98078Q12.0017,7,12.1002,7L16.1458,7L16.1458,20L2.0091099999999997,20Z" fill-rule="evenodd" fill="#FFFFFF" fill-opacity="1"/></g><g><path d="M16.4415597265625,6.70999L16.4418797265625,6.71031Q16.5823297265625,6.84949,16.7651797265625,6.92474Q16.9480397265625,7,17.1457697265625,7L17.1502997265625,6.99999Q17.3492097265625,6.99909,17.5326397265625,6.92213Q17.7160597265625,6.84518,17.8560797265625,6.70389Q17.9952597265625,6.56344,18.0705097265625,6.38059Q18.1457697265625,6.19773,18.1457697265625,6L18.1457597265625,5.99547Q18.1448597265625,5.79656,18.0679097265625,5.61313Q17.990949726562498,5.42971,17.8496597265625,5.28969L17.849339726562498,5.28938L12.8041127265625,0.289694Q12.6636617265625,0.15051099999999995,12.4808077265625,0.07525499999999996Q12.2979547265625,0,12.1002201451875,0L12.1001719280625,0L12.0960591065625,0.000009000000000036756L12.0956853765625,0.00000999999999995449Q11.8967747265625,0.0009120000000000239,11.7133507265625,0.07786499999999996Q11.5299267265625,0.154818,11.3899137265625,0.296107Q11.2507297265625,0.436558,11.1754747265625,0.6194120000000001Q11.1002197265625,0.802266,11.1002197265625,1L11.1002197265625,1.0000477985L11.1002287265625,1.00416062L11.1002297265625,1.00453435Q11.1011317265625,1.2034449999999999,11.1780847265625,1.386869Q11.2550377265625,1.570293,11.3963267265625,1.710306L16.4415597265625,6.70999Z" fill-rule="evenodd" fill="#FFFFFF" fill-opacity="1"/></g><g><ellipse cx="6.045563697814941" cy="7.5" rx="2.0182199478149414" ry="2" fill="#FFFFFF" fill-opacity="1"/><ellipse cx="6.045563697814941" cy="7.5" rx="2.0182199478149414" ry="2" fill-opacity="0" stroke-opacity="1" stroke="#FFFFFF" fill="none" stroke-width="2" stroke-linecap="ROUND" stroke-linejoin="round"/></g><g><path d="M4.531982421875,13L4.531982421875,17.5L13.613972421875,17.5L13.613972421875,9.5L8.815352421875,14.75L4.531982421875,13Z" fill="#FFFFFF" fill-opacity="1"/><path d="M8.547832421875,13.560459999999999L12.875842421875,8.825337Q12.946122421875,8.748453,13.030732421875,8.687702Q13.115332421875,8.626952,13.210652421875,8.584942Q13.305962421875,8.542932,13.407882421875,8.521466Q13.509812421875,8.5,13.613972421875,8.5Q13.712462421875,8.5,13.809062421875,8.519214999999999Q13.905662421875,8.53843,13.996652421875,8.576121Q14.087652421875,8.613812,14.169542421875,8.66853Q14.251432421875,8.723249,14.321082421875,8.792893Q14.390722421875,8.862537,14.445442421875,8.94443Q14.500162421875,9.026322,14.537882421875,9.117317Q14.575582421875,9.208311,14.594782421875,9.30491Q14.613982421875,9.4015086,14.613982421875,9.5L14.613982421875,17.5Q14.613982421875,17.598489999999998,14.594782421875,17.69509Q14.575582421875,17.79169,14.537882421875,17.88268Q14.500162421875,17.97368,14.445442421875,18.05557Q14.390722421875,18.13746,14.321082421875,18.20711Q14.251432421875,18.27675,14.169542421875,18.33147Q14.087652421875,18.38619,13.996652421875,18.42388Q13.905662421875,18.461570000000002,13.809062421875,18.48078Q13.712462421875,18.5,13.613972421875,18.5L4.531982421875,18.5Q4.433491021875,18.5,4.336892421875,18.48078Q4.240293421875,18.461570000000002,4.149299421875,18.42388Q4.058304421875,18.38619,3.976412421875,18.33147Q3.894519421875,18.27675,3.824875421875,18.20711Q3.755231421875,18.13746,3.700512421875,18.05557Q3.6457944218750002,17.97368,3.608103421875,17.88268Q3.570412421875,17.79169,3.551197421875,17.69509Q3.531982421875,17.598489999999998,3.531982421875,17.5L3.531982421875,13Q3.531982421875,12.8036,3.606262421875,12.62179Q3.643512421875,12.530619999999999,3.697834421875,12.44846Q3.752156421875,12.366299999999999,3.821463421875,12.29632Q3.890769421875,12.22634,3.972396421875,12.17123Q4.054023421875,12.116109999999999,4.144833421875,12.07798Q4.235644421875,12.03985,4.332149421875,12.02017Q4.428654421875,12.00049,4.527144521875,12.00001Q4.625634721875,11.99954,4.722325421875,12.01828Q4.819016421875,12.03703,4.910191421875,12.07428L8.547832421875,13.560459999999999ZM5.531982421875,14.488800000000001L8.437142421875,15.67572Q8.507762421875,15.70457,8.581932421874999,15.722380000000001Q8.656102421875,15.740179999999999,8.732122421875001,15.74653Q8.808142421875,15.752880000000001,8.884242421875001,15.747620000000001Q8.960342421875,15.742370000000001,9.034762421875,15.725629999999999Q9.109192421875001,15.7089,9.180212421875,15.68106Q9.251232421874999,15.65323,9.317212421875,15.61495Q9.383192421875,15.57666,9.442602421875,15.52882Q9.502012421875001,15.48097,9.553472421875,15.42466L12.613972421875,12.07629L12.613972421875,16.5L5.531982421875,16.5L5.531982421875,14.488800000000001Z" fill-rule="evenodd" fill="#FFFFFF" fill-opacity="1"/></g></g></svg>