<svg xmlns="http://www.w3.org/2000/svg" xmlns:xlink="http://www.w3.org/1999/xlink" fill="none" version="1.1" width="20" height="15.025214195251465" viewBox="0 0 20 15.025214195251465"><g><path d="M10,0C4.65732,0,1.63599,3.93987,0.376034,6.11265C-0.125345,6.97811,-0.125345,8.04568,0.376034,8.91113C1.63599,11.0853,4.65732,15.0252,10,15.0252C15.3427,15.0252,18.364,11.0853,19.624,8.91256C20.1253,8.0471,20.1253,6.97954,19.624,6.11408C18.364,3.93987,15.3427,0,10,0ZM10,12.0196C7.5558,12.0196,5.573,10.0025,5.573,7.51261C5.573,5.02269,7.5558,3.00561,10,3.00561C12.4442,3.00561,14.427,5.02269,14.427,7.51261C14.427,10.0025,12.4442,12.0196,10,12.0196ZM12.2128,7.51261C12.2128,8.79257,11.1642,9.82396,9.89572,9.76396C8.76861,9.71111,7.8415,8.76685,7.79007,7.61975C7.73007,6.32693,8.7429,5.2584,10,5.2584C11.2214,5.2584,12.2128,6.26836,12.2128,7.51261Z" fill="#0096FF" fill-opacity="1"/></g></svg>