<svg xmlns="http://www.w3.org/2000/svg" xmlns:xlink="http://www.w3.org/1999/xlink" fill="none" version="1.1" width="36" height="36" viewBox="0 0 36 36"><defs><filter id="master_svg0_96_5593" filterUnits="objectBoundingBox" color-interpolation-filters="sRGB" x="-8" y="-8" width="36" height="36"><feFlood flood-opacity="0" result="BackgroundImageFix"/><feColorMatrix in="SourceAlpha" type="matrix" values="0 0 0 0 0 0 0 0 0 0 0 0 0 0 0 0 0 0 127 0"/><feOffset dy="0" dx="0"/><feGaussianBlur stdDeviation="2"/><feColorMatrix type="matrix" values="0 0 0 0 0 0 0 0 0 0 0 0 0 0 0 0 0 0 0.3019607961177826 0"/><feBlend mode="normal" in2="BackgroundImageFix" result="effect1_dropShadow"/><feBlend mode="normal" in="SourceGraphic" in2="effect1_dropShadow" result="shape"/></filter></defs><g filter="url(#master_svg0_96_5593)"><path d="M28,24.6671L28,25.7786C28,27.0057,27.0057,28,25.7771,28L24.6657,28C23.8457,28,23.1371,27.55,22.7514,26.8886L13.24714,26.8886C12.862860000000001,27.55,12.15429,28,11.33286,28L10.22286,28C8.994286,28,8,27.0057,8,25.7771L8,24.6657C8,23.8457,8.45,23.1371,9.11143,22.7514L9.11143,13.24714C8.45,12.862860000000001,8,12.15429,8,11.33286L8,10.22286C8,8.994286,8.994286,8,10.22286,8L11.33429,8C12.15429,8,12.862860000000001,8.45,13.24857,9.11143L22.7543,9.11143C23.1371,8.45,23.8457,8,24.6671,8L25.7786,8C27.0057,8,28,8.994286,28,10.22286L28,11.33429C28,12.15429,27.55,12.862860000000001,26.8886,13.24857L26.8886,22.7543C27.55,23.1371,28,23.8457,28,24.6671ZM24.6671,26.8886L25.7786,26.8886C26.3929,26.8886,26.89,26.3914,26.89,25.7771L26.89,24.6657C26.89,24.0514,26.3929,23.554299999999998,25.7786,23.554299999999998L24.6671,23.554299999999998C24.0529,23.554299999999998,23.5557,24.0514,23.5557,24.6657L23.5557,25.7771C23.5557,26.3914,24.0529,26.8886,24.6671,26.8886ZM9.11143,25.7771C9.11143,26.3914,9.60857,26.8886,10.22286,26.8886L11.33429,26.8886C11.94857,26.8886,12.44571,26.3914,12.44571,25.7771L12.44571,24.6657C12.44571,24.0514,11.94857,23.554299999999998,11.33429,23.554299999999998L10.22286,23.554299999999998C9.60857,23.554299999999998,9.11143,24.0514,9.11143,24.6657L9.11143,25.7771ZM12.444289999999999,10.22286C12.444289999999999,9.60857,11.947140000000001,9.11143,11.33286,9.11143L10.22286,9.11143C9.60857,9.11143,9.11143,9.60857,9.11143,10.22286L9.11143,11.33429C9.11143,11.94857,9.60857,12.44571,10.22286,12.44571L11.33429,12.44571C11.94857,12.44571,12.44571,11.94857,12.44571,11.33429L12.44571,10.22286L12.444289999999999,10.22286ZM22.7529,12.444289999999999L13.24714,12.444289999999999C13.052859999999999,12.77857,12.77857,13.052859999999999,12.444289999999999,13.24714L12.444289999999999,22.7529C12.77714,22.9471,13.052859999999999,23.2229,13.24714,23.5557L22.7529,23.5557C22.9471,23.2229,23.2229,22.9471,23.5557,22.7529L23.5557,13.24714C23.2214,13.052859999999999,22.9471,12.77857,22.7529,12.444289999999999ZM26.8886,10.22286C26.8886,9.60857,26.3914,9.11143,25.7771,9.11143L24.6657,9.11143C24.0514,9.11143,23.554299999999998,9.60857,23.554299999999998,10.22286L23.554299999999998,11.33429C23.554299999999998,11.94857,24.0514,12.44571,24.6657,12.44571L25.7771,12.44571C26.3914,12.44571,26.8886,11.94857,26.8886,11.33429L26.8886,10.22286Z" fill="#FFFFFF" fill-opacity="1"/></g></svg>