<svg xmlns="http://www.w3.org/2000/svg" xmlns:xlink="http://www.w3.org/1999/xlink" fill="none" version="1.1" width="22.1822509765625" height="17" viewBox="0 0 22.1822509765625 17"><g><g><rect x="1" y="0" width="20.182199478149414" height="16" rx="2" fill="#FFFFFF" fill-opacity="1"/></g><g></g><g><path d="M1,11.5L21.1822,11.5Q21.2807,11.5,21.3773,11.480785000000001Q21.4739,11.46157,21.5649,11.423879Q21.6559,11.386188,21.7378,11.33147Q21.8197,11.276751,21.8893,11.207107Q21.9589,11.137463,22.0137,11.05557Q22.0684,10.973678,22.1061,10.882683Q22.1438,10.791689,22.163,10.69509Q22.1822,10.5984914,22.1822,10.5Q22.1822,10.4015086,22.163,10.30491Q22.1438,10.208311,22.1061,10.117317Q22.0684,10.026322,22.0137,9.94443Q21.9589,9.862537,21.8893,9.792893Q21.8197,9.723249,21.7378,9.66853Q21.6559,9.613812,21.5649,9.576121Q21.4739,9.53843,21.3773,9.519214999999999Q21.2807,9.5,21.1822,9.5L1,9.5Q0.9015086,9.5,0.80491,9.519214999999999Q0.708311,9.53843,0.617317,9.576121Q0.526322,9.613812,0.44443,9.66853Q0.362537,9.723249,0.29289299999999996,9.792893Q0.22324900000000003,9.862537,0.16852999999999996,9.94443Q0.11381200000000002,10.026322,0.076121,10.117317Q0.038429999999999964,10.208311,0.019214999999999982,10.30491Q0,10.4015086,0,10.5Q0,10.5984914,0.019214999999999982,10.69509Q0.038429999999999964,10.791689,0.076121,10.882683Q0.11381200000000002,10.973678,0.16852999999999996,11.05557Q0.22324900000000003,11.137463,0.29289299999999996,11.207107Q0.362537,11.276751,0.44443,11.33147Q0.526322,11.386188,0.617317,11.423879Q0.708311,11.46157,0.80491,11.480785000000001Q0.9015086,11.5,1,11.5Z" fill-rule="evenodd" fill="#2FC25B" fill-opacity="1"/></g><g></g><g><path d="M1,6.5L21.1822,6.5Q21.2807,6.5,21.3773,6.480785Q21.4739,6.46157,21.5649,6.423879Q21.6559,6.386188,21.7378,6.33147Q21.8197,6.276751,21.8893,6.207107Q21.9589,6.137463,22.0137,6.05557Q22.0684,5.973678,22.1061,5.882683Q22.1438,5.791689,22.163,5.69509Q22.1822,5.5984914,22.1822,5.5Q22.1822,5.4015086,22.163,5.30491Q22.1438,5.208311,22.1061,5.117317Q22.0684,5.026322,22.0137,4.94443Q21.9589,4.862537,21.8893,4.792893Q21.8197,4.723249,21.7378,4.66853Q21.6559,4.613812,21.5649,4.576121Q21.4739,4.53843,21.3773,4.519215Q21.2807,4.5,21.1822,4.5L1,4.5Q0.9015086,4.5,0.80491,4.519215Q0.708311,4.53843,0.617317,4.576121Q0.526322,4.613812,0.44443,4.66853Q0.362537,4.723249,0.29289299999999996,4.792893Q0.22324900000000003,4.862537,0.16852999999999996,4.94443Q0.11381200000000002,5.026322,0.076121,5.117317Q0.038429999999999964,5.208311,0.019214999999999982,5.30491Q0,5.4015086,0,5.5Q0,5.5984914,0.019214999999999982,5.69509Q0.038429999999999964,5.791689,0.076121,5.882683Q0.11381200000000002,5.973678,0.16852999999999996,6.05557Q0.22324900000000003,6.137463,0.29289299999999996,6.207107Q0.362537,6.276751,0.44443,6.33147Q0.526322,6.386188,0.617317,6.423879Q0.708311,6.46157,0.80491,6.480785Q0.9015086,6.5,1,6.5Z" fill-rule="evenodd" fill="#2FC25B" fill-opacity="1"/></g><g><path d="M7.559326171875,16L8.059326171875,16L8.059326171875,5.5L7.059326171875,5.5L7.059326171875,16L7.559326171875,16Z" fill-rule="evenodd" fill="#D39422" fill-opacity="1"/></g><g><path d="M8.559326171875,16L8.559326171875,5.5Q8.559326171875,5.4015086,8.540111171875001,5.30491Q8.520896171875,5.208311,8.483205171875,5.117317Q8.445514171875,5.026322,8.390796171875,4.94443Q8.336077171875,4.862537,8.266433171875,4.792893Q8.196789171875,4.723249,8.114896171875,4.66853Q8.033004171875,4.613812,7.942009171875,4.576121Q7.851015171875,4.53843,7.754416171875,4.519215Q7.657817571875,4.5,7.559326171875,4.5Q7.460834771875,4.5,7.364236171875,4.519215Q7.267637171875,4.53843,7.176643171875,4.576121Q7.085648171875,4.613812,7.003756171875,4.66853Q6.921863171875,4.723249,6.852219171875,4.792893Q6.782575171875,4.862537,6.727856171875,4.94443Q6.673138171875,5.026322,6.635447171875,5.117317Q6.597756171875,5.208311,6.578541171875,5.30491Q6.559326171875,5.4015086,6.559326171875,5.5L6.559326171875,16Q6.559326171875,16.0985,6.578541171875,16.1951Q6.597756171875,16.2917,6.635447171875,16.3827Q6.673138171875,16.4737,6.727856171875,16.5556Q6.782575171875,16.6375,6.852219171875,16.7071Q6.921863171875,16.7768,7.003756171875,16.8315Q7.085648171875,16.886200000000002,7.176643171875,16.9239Q7.267637171875,16.9616,7.364236171875,16.980800000000002Q7.460834771875,17,7.559326171875,17Q7.657817571875,17,7.754416171875,16.980800000000002Q7.851015171875,16.9616,7.942009171875,16.9239Q8.033004171875,16.886200000000002,8.114896171875,16.8315Q8.196789171875,16.7768,8.266433171875,16.7071Q8.336077171875,16.6375,8.390796171875,16.5556Q8.445514171875,16.4737,8.483205171875,16.3827Q8.520896171875,16.2917,8.540111171875001,16.1951Q8.559326171875,16.0985,8.559326171875,16Z" fill-rule="evenodd" fill="#2FC25B" fill-opacity="1"/></g><g><path d="M14.623046875,16L15.123046875,16L15.123046875,5.5L14.123046875,5.5L14.123046875,16L14.623046875,16Z" fill-rule="evenodd" fill="#D39422" fill-opacity="1"/></g><g><path d="M15.623046875,16L15.623046875,5.5Q15.623046875,5.4015086,15.603831875000001,5.30491Q15.584616875,5.208311,15.546925875,5.117317Q15.509234875,5.026322,15.454516875,4.94443Q15.399797875,4.862537,15.330153875,4.792893Q15.260509875,4.723249,15.178616875,4.66853Q15.096724875,4.613812,15.005729875,4.576121Q14.914735875,4.53843,14.818136875,4.519215Q14.721538275,4.5,14.623046875,4.5Q14.524555475,4.5,14.427956875,4.519215Q14.331357875,4.53843,14.240363875,4.576121Q14.149368875,4.613812,14.067476875,4.66853Q13.985583875,4.723249,13.915939875,4.792893Q13.846295875,4.862537,13.791576875,4.94443Q13.736858875,5.026322,13.699167875,5.117317Q13.661476875,5.208311,13.642261874999999,5.30491Q13.623046875,5.4015086,13.623046875,5.5L13.623046875,16Q13.623046875,16.0985,13.642261874999999,16.1951Q13.661476875,16.2917,13.699167875,16.3827Q13.736858875,16.4737,13.791576875,16.5556Q13.846295875,16.6375,13.915939875,16.7071Q13.985583875,16.7768,14.067476875,16.8315Q14.149368875,16.886200000000002,14.240363875,16.9239Q14.331357875,16.9616,14.427956875,16.980800000000002Q14.524555475,17,14.623046875,17Q14.721538275,17,14.818136875,16.980800000000002Q14.914735875,16.9616,15.005729875,16.9239Q15.096724875,16.886200000000002,15.178616875,16.8315Q15.260509875,16.7768,15.330153875,16.7071Q15.399797875,16.6375,15.454516875,16.5556Q15.509234875,16.4737,15.546925875,16.3827Q15.584616875,16.2917,15.603831875000001,16.1951Q15.623046875,16.0985,15.623046875,16Z" fill-rule="evenodd" fill="#2FC25B" fill-opacity="1"/></g></g></svg>