<svg xmlns="http://www.w3.org/2000/svg" xmlns:xlink="http://www.w3.org/1999/xlink" fill="none" version="1.1" width="36.09306335449219" height="36" viewBox="0 0 36.09306335449219 36"><defs><filter id="master_svg0_96_5585" filterUnits="objectBoundingBox" color-interpolation-filters="sRGB" x="-8" y="-8" width="36.09306335449219" height="36"><feFlood flood-opacity="0" result="BackgroundImageFix"/><feColorMatrix in="SourceAlpha" type="matrix" values="0 0 0 0 0 0 0 0 0 0 0 0 0 0 0 0 0 0 127 0"/><feOffset dy="0" dx="0"/><feGaussianBlur stdDeviation="2"/><feColorMatrix type="matrix" values="0 0 0 0 0 0 0 0 0 0 0 0 0 0 0 0 0 0 0.3019607961177826 0"/><feBlend mode="normal" in2="BackgroundImageFix" result="effect1_dropShadow"/><feBlend mode="normal" in="SourceGraphic" in2="effect1_dropShadow" result="shape"/></filter></defs><g filter="url(#master_svg0_96_5585)"><path d="M27.8874,10.50344C27.9491,10.64059,27.9985,10.80051,28.036,10.98339C28.0741,11.16618,28.0931,11.35664,28.0931,11.5547C28.0931,11.75276,28.055,11.95068,27.9788,12.14873C27.9023,12.34684,27.7804,12.5373,27.6132,12.72005C27.4304,12.90295,27.2667,13.06284,27.1218,13.19994C26.9771,13.33707,26.8514,13.45895,26.7447,13.56561C26.6229,13.687470000000001,26.5086,13.79416,26.402,13.8855L22.128500000000003,9.61226C22.3113,9.44467,22.528399999999998,9.24282,22.7797,9.0066C23.031100000000002,8.770465,23.2406,8.583925,23.4082,8.446751C23.621499999999997,8.279188,23.8425,8.16112,24.071,8.0924936C24.2995,8.0239983,24.5243,7.99350652,24.7451,8.00114898C24.966,8.0088176,25.1793,8.0430787,25.3851,8.103984C25.5907,8.164915,25.7696,8.233437,25.922,8.309682C26.242,8.477403,26.5962,8.770572,26.9848,9.18948C27.3732,9.60836,27.6742,10.04645,27.8874,10.50344ZM10.084900000000001,21.6553C10.17628,21.5639,10.38963,21.3468,10.72474,21.003999999999998C11.05996,20.6612,11.47896,20.238500000000002,11.98164,19.7357L13.65001,18.0676L15.50113,16.216540000000002L20.4145,11.30328L24.688,15.599450000000001L19.7746,20.512700000000002L17.94639,22.3637C17.336959999999998,22.9578,16.78848,23.5026,16.30095,23.997700000000002C15.81345,24.4928,15.40962,24.9003,15.08972,25.2202C14.76973,25.5401,14.57929,25.723,14.51838,25.7687C14.366119999999999,25.9058,14.19078,26.0505,13.99282,26.2028C13.79478,26.3553,13.58913,26.4771,13.37576,26.5685C13.16254,26.6752,12.85014,26.8046,12.43873,26.957C12.02742,27.1093,11.59704,27.2578,11.14757,27.4026C10.6982,27.5474,10.271609999999999,27.6731,9.86776,27.7797C9.46404,27.8862,9.163219999999999,27.9549,8.96513,27.9853C8.553692,28.031,8.27954,27.9701,8.142384,27.8025C8.00528049,27.635,7.9671985,27.3532,8.0281062,26.957C8.0586007,26.7437,8.131025,26.4353,8.245276,26.0315C8.359554,25.6277,8.481398,25.2088,8.61083,24.7746C8.740393,24.3405,8.866032,23.9405,8.987979,23.5749C9.10985,23.2093,9.20881,22.957900000000002,9.285029999999999,22.8208C9.37646,22.607599999999998,9.479330000000001,22.4133,9.59355,22.2381C9.70786,22.0628,9.87168,21.8686,10.084900000000001,21.6553ZM17.70503,25.9653L19.7487,25.9653L19.7487,28L17.70503,28L17.70503,25.9653ZM21.857300000000002,25.9653L23.9009,25.9653L23.9009,28L21.857300000000002,28L21.857300000000002,25.9653ZM26.026,25.9653L28.0697,25.9653L28.0697,28L26.026,28L26.026,25.9653Z" fill="#FFFFFF" fill-opacity="1"/></g></svg>