<svg xmlns="http://www.w3.org/2000/svg" xmlns:xlink="http://www.w3.org/1999/xlink" fill="none" version="1.1" width="20.18212890625" height="20" viewBox="0 0 20.18212890625 20"><g><path d="M16.2178,17.8571L16.2178,18.5714L20.1822,18.5714L20.1822,20L0,20L0,0L1.44159,0L1.44159,3.92857L2.52277,3.92857L2.52277,5.35714L1.44159,5.35714L1.44159,11.4286L2.52277,11.4286L2.52277,12.8571L1.44159,12.8571L1.44159,18.5714L6.48714,18.5714L6.48714,17.8571L7.92872,17.8571L7.92872,18.5714L14.7763,18.5714L14.7763,17.8571L16.2178,17.8571ZM13.3348,2.85718L16.9387,2.85718L16.9387,17.1429L13.3348,17.1429L13.3348,2.85718ZM14.7763,15.7143L15.4971,15.7143L15.4971,4.28575L14.7763,4.28575L14.7763,15.7143ZM8.2892,7.85718L11.8932,7.85718L11.8932,17.1429L8.2892,17.1429L8.2892,7.85718ZM9.73079,15.7143L10.4516,15.7143L10.4516,9.28575L9.73079,9.28575L9.73079,15.7143ZM3.24365,12.1429L6.84762,12.1429L6.84762,17.1429L3.24365,17.1429L3.24365,12.1429ZM4.68524,15.7143L5.40603,15.7143L5.40603,13.5715L4.68524,13.5715L4.68524,15.7143Z" fill-rule="evenodd" fill="#FFFFFF" fill-opacity="1"/></g></svg>